<?xml version="1.0" standalone="no"?>
<!DOCTYPE svg PUBLIC "-//W3C//DTD SVG 20010904//EN"
 "http://www.w3.org/TR/2001/REC-SVG-20010904/DTD/svg10.dtd">
<svg version="1.0" xmlns="http://www.w3.org/2000/svg"
 width="1000.000000pt" height="1000.000000pt" viewBox="0 0 1000.000000 1000.000000"
 preserveAspectRatio="xMidYMid meet">
<metadata>
Created by potrace 1.14, written by Peter Selinger 2001-2017
</metadata>
<g transform="translate(0.000000,1000.000000) scale(0.100000,-0.100000)"
fill="#000000" stroke="none">
<path d="M4650 7985 c-565 -71 -1088 -290 -1530 -641 -118 -93 -391 -369 -480
-484 -335 -434 -527 -884 -615 -1440 -26 -162 -32 -567 -10 -750 65 -571 285
-1101 641 -1550 93 -118 369 -391 484 -480 434 -335 884 -527 1440 -615 162
-26 567 -32 750 -10 571 65 1101 285 1550 641 118 93 391 369 480 484 182 236
329 492 433 755 95 238 108 376 53 550 -37 115 -89 198 -187 295 -126 125
-273 204 -452 241 -87 18 -148 19 -1102 19 -661 0 -1026 -4 -1055 -11 -123
-28 -263 -135 -322 -245 -53 -99 -73 -251 -47 -363 35 -152 159 -295 307 -352
51 -20 84 -23 307 -30 209 -6 262 -11 325 -29 171 -49 315 -160 381 -295 29
-58 35 -83 38 -152 3 -75 0 -89 -28 -148 -57 -122 -161 -196 -381 -269 -319
-106 -693 -128 -1027 -61 -526 107 -998 431 -1288 885 -223 348 -334 791 -305
1207 26 354 140 684 338 978 203 302 454 519 785 680 460 225 1006 261 1495
99 324 -107 664 -334 882 -589 190 -223 335 -305 540 -305 149 0 260 44 366
142 143 134 181 326 99 490 -91 182 -414 541 -655 727 -430 334 -882 528
-1440 617 -147 23 -612 28 -770 9z"/>
</g>
</svg>
